<mxfile host="app.diagrams.net" agent="Mozilla/5.0 (Windows NT 10.0; Win64; x64) AppleWebKit/537.36 (KHTML, like Gecko) Chrome/127.0.0.0 Safari/537.36 Edg/127.0.0.0" version="24.7.6">
  <diagram id="C5RBs43oDa-KdzZeNtuy" name="Page-1">
    <mxGraphModel dx="4858" dy="1369" grid="1" gridSize="10" guides="1" tooltips="1" connect="1" arrows="1" fold="1" page="1" pageScale="1" pageWidth="827" pageHeight="1169" math="0" shadow="0">
      <root>
        <mxCell id="WIyWlLk6GJQsqaUBKTNV-0" />
        <mxCell id="WIyWlLk6GJQsqaUBKTNV-1" parent="WIyWlLk6GJQsqaUBKTNV-0" />
        <mxCell id="ooVw9LdMY0Mfpqag8ppf-5" value="" style="edgeStyle=orthogonalEdgeStyle;rounded=0;orthogonalLoop=1;jettySize=auto;html=1;strokeColor=#23445D;" parent="WIyWlLk6GJQsqaUBKTNV-1" source="ooVw9LdMY0Mfpqag8ppf-3" target="ooVw9LdMY0Mfpqag8ppf-4" edge="1">
          <mxGeometry relative="1" as="geometry" />
        </mxCell>
        <mxCell id="ooVw9LdMY0Mfpqag8ppf-7" value="" style="edgeStyle=orthogonalEdgeStyle;rounded=0;orthogonalLoop=1;jettySize=auto;html=1;strokeColor=#23445D;" parent="WIyWlLk6GJQsqaUBKTNV-1" source="ooVw9LdMY0Mfpqag8ppf-3" target="ooVw9LdMY0Mfpqag8ppf-6" edge="1">
          <mxGeometry relative="1" as="geometry" />
        </mxCell>
        <mxCell id="ooVw9LdMY0Mfpqag8ppf-9" value="" style="edgeStyle=orthogonalEdgeStyle;rounded=0;orthogonalLoop=1;jettySize=auto;html=1;strokeColor=#23445D;" parent="WIyWlLk6GJQsqaUBKTNV-1" source="ooVw9LdMY0Mfpqag8ppf-3" target="ooVw9LdMY0Mfpqag8ppf-8" edge="1">
          <mxGeometry relative="1" as="geometry" />
        </mxCell>
        <mxCell id="ooVw9LdMY0Mfpqag8ppf-3" value="&lt;font color=&quot;#000000&quot;&gt;&lt;b&gt;메인 페이지&lt;/b&gt;&lt;/font&gt;" style="rounded=1;whiteSpace=wrap;html=1;labelBackgroundColor=none;fillColor=#e0f8ff;strokeColor=#666666;fontSize=14;fontColor=#333333;" parent="WIyWlLk6GJQsqaUBKTNV-1" vertex="1">
          <mxGeometry x="414" y="140" width="310" height="30" as="geometry" />
        </mxCell>
        <mxCell id="ooVw9LdMY0Mfpqag8ppf-4" value="장바구니" style="whiteSpace=wrap;html=1;rounded=1;labelBackgroundColor=none;fontStyle=1;fontSize=14;fillColor=#f5f5f5;fontColor=#333333;strokeColor=#666666;" parent="WIyWlLk6GJQsqaUBKTNV-1" vertex="1">
          <mxGeometry x="900" y="345" width="140" height="23" as="geometry" />
        </mxCell>
        <mxCell id="ooVw9LdMY0Mfpqag8ppf-73" value="" style="edgeStyle=orthogonalEdgeStyle;rounded=0;orthogonalLoop=1;jettySize=auto;html=1;strokeColor=#23445D;" parent="WIyWlLk6GJQsqaUBKTNV-1" source="ooVw9LdMY0Mfpqag8ppf-6" target="ooVw9LdMY0Mfpqag8ppf-14" edge="1">
          <mxGeometry relative="1" as="geometry" />
        </mxCell>
        <mxCell id="ooVw9LdMY0Mfpqag8ppf-74" value="" style="edgeStyle=orthogonalEdgeStyle;rounded=0;orthogonalLoop=1;jettySize=auto;html=1;strokeColor=#23445D;" parent="WIyWlLk6GJQsqaUBKTNV-1" source="ooVw9LdMY0Mfpqag8ppf-6" target="ooVw9LdMY0Mfpqag8ppf-15" edge="1">
          <mxGeometry relative="1" as="geometry">
            <Array as="points">
              <mxPoint x="460" y="245" />
            </Array>
          </mxGeometry>
        </mxCell>
        <mxCell id="ooVw9LdMY0Mfpqag8ppf-6" value="로그인 페이지" style="whiteSpace=wrap;html=1;fillColor=#fff2cc;strokeColor=#d6b656;rounded=1;labelBackgroundColor=none;fontStyle=1;fontFamily=Helvetica;fontSize=14;" parent="WIyWlLk6GJQsqaUBKTNV-1" vertex="1">
          <mxGeometry x="501.5" y="230" width="135" height="30" as="geometry" />
        </mxCell>
        <mxCell id="ooVw9LdMY0Mfpqag8ppf-39" value="" style="edgeStyle=orthogonalEdgeStyle;rounded=0;orthogonalLoop=1;jettySize=auto;html=1;strokeColor=#23445D;entryX=0.5;entryY=0;entryDx=0;entryDy=0;" parent="WIyWlLk6GJQsqaUBKTNV-1" target="ooVw9LdMY0Mfpqag8ppf-38" edge="1">
          <mxGeometry relative="1" as="geometry">
            <mxPoint x="-363" y="231.52380952380952" as="sourcePoint" />
            <mxPoint x="202" y="640" as="targetPoint" />
          </mxGeometry>
        </mxCell>
        <mxCell id="ooVw9LdMY0Mfpqag8ppf-41" value="" style="edgeStyle=orthogonalEdgeStyle;rounded=0;orthogonalLoop=1;jettySize=auto;html=1;strokeColor=#23445D;" parent="WIyWlLk6GJQsqaUBKTNV-1" source="ooVw9LdMY0Mfpqag8ppf-8" target="ooVw9LdMY0Mfpqag8ppf-40" edge="1">
          <mxGeometry relative="1" as="geometry" />
        </mxCell>
        <mxCell id="ooVw9LdMY0Mfpqag8ppf-56" value="" style="edgeStyle=orthogonalEdgeStyle;rounded=0;orthogonalLoop=1;jettySize=auto;html=1;strokeColor=#23445D;entryX=0.5;entryY=0;entryDx=0;entryDy=0;" parent="WIyWlLk6GJQsqaUBKTNV-1" source="ooVw9LdMY0Mfpqag8ppf-8" target="ooVw9LdMY0Mfpqag8ppf-47" edge="1">
          <mxGeometry relative="1" as="geometry">
            <mxPoint x="-444.99999999999955" y="323" as="targetPoint" />
            <Array as="points">
              <mxPoint x="-445" y="280" />
              <mxPoint x="-215" y="280" />
            </Array>
          </mxGeometry>
        </mxCell>
        <mxCell id="ooVw9LdMY0Mfpqag8ppf-58" value="" style="edgeStyle=orthogonalEdgeStyle;rounded=0;orthogonalLoop=1;jettySize=auto;html=1;strokeColor=#23445D;entryX=0.5;entryY=0;entryDx=0;entryDy=0;" parent="WIyWlLk6GJQsqaUBKTNV-1" source="ooVw9LdMY0Mfpqag8ppf-8" target="ooVw9LdMY0Mfpqag8ppf-43" edge="1">
          <mxGeometry relative="1" as="geometry">
            <mxPoint x="-444.99999999999955" y="323" as="targetPoint" />
            <Array as="points">
              <mxPoint x="-445" y="280" />
              <mxPoint x="-1569" y="280" />
            </Array>
          </mxGeometry>
        </mxCell>
        <mxCell id="ooVw9LdMY0Mfpqag8ppf-60" value="" style="edgeStyle=orthogonalEdgeStyle;rounded=0;orthogonalLoop=1;jettySize=auto;html=1;strokeColor=#23445D;entryX=0.5;entryY=0;entryDx=0;entryDy=0;" parent="WIyWlLk6GJQsqaUBKTNV-1" source="ooVw9LdMY0Mfpqag8ppf-8" target="ooVw9LdMY0Mfpqag8ppf-52" edge="1">
          <mxGeometry relative="1" as="geometry">
            <mxPoint x="-434.99999999999955" y="400" as="targetPoint" />
            <Array as="points">
              <mxPoint x="-445" y="280" />
              <mxPoint x="-1135" y="280" />
            </Array>
          </mxGeometry>
        </mxCell>
        <mxCell id="ooVw9LdMY0Mfpqag8ppf-62" value="" style="edgeStyle=orthogonalEdgeStyle;rounded=0;orthogonalLoop=1;jettySize=auto;html=1;strokeColor=#23445D;entryX=0.5;entryY=0;entryDx=0;entryDy=0;" parent="WIyWlLk6GJQsqaUBKTNV-1" source="ooVw9LdMY0Mfpqag8ppf-8" target="ooVw9LdMY0Mfpqag8ppf-51" edge="1">
          <mxGeometry relative="1" as="geometry">
            <mxPoint x="-444.99999999999955" y="323" as="targetPoint" />
            <Array as="points">
              <mxPoint x="-445" y="280" />
              <mxPoint x="-912" y="280" />
            </Array>
          </mxGeometry>
        </mxCell>
        <mxCell id="ooVw9LdMY0Mfpqag8ppf-8" value="네비게이션 바" style="rounded=1;whiteSpace=wrap;html=1;fillColor=#f8cecc;strokeColor=#b85450;labelBackgroundColor=none;fontStyle=1;fontSize=14;" parent="WIyWlLk6GJQsqaUBKTNV-1" vertex="1">
          <mxGeometry x="-530" y="220" width="170" height="23" as="geometry" />
        </mxCell>
        <mxCell id="ooVw9LdMY0Mfpqag8ppf-29" value="" style="edgeStyle=orthogonalEdgeStyle;rounded=0;orthogonalLoop=1;jettySize=auto;html=1;strokeColor=#23445D;" parent="WIyWlLk6GJQsqaUBKTNV-1" source="ooVw9LdMY0Mfpqag8ppf-14" target="ooVw9LdMY0Mfpqag8ppf-28" edge="1">
          <mxGeometry relative="1" as="geometry" />
        </mxCell>
        <mxCell id="ooVw9LdMY0Mfpqag8ppf-14" value="아이디 /&lt;div style=&quot;font-size: 14px;&quot;&gt;비밀번호 찾기&lt;/div&gt;" style="whiteSpace=wrap;html=1;fillColor=#fff2cc;strokeColor=#d6b656;rounded=1;labelBackgroundColor=none;fontStyle=1;fontFamily=Helvetica;fontSize=14;" parent="WIyWlLk6GJQsqaUBKTNV-1" vertex="1">
          <mxGeometry x="650" y="280" width="130" height="40" as="geometry" />
        </mxCell>
        <mxCell id="ooVw9LdMY0Mfpqag8ppf-21" value="" style="edgeStyle=orthogonalEdgeStyle;rounded=0;orthogonalLoop=1;jettySize=auto;html=1;strokeColor=#23445D;exitX=0;exitY=0.5;exitDx=0;exitDy=0;" parent="WIyWlLk6GJQsqaUBKTNV-1" source="ooVw9LdMY0Mfpqag8ppf-15" edge="1">
          <mxGeometry relative="1" as="geometry">
            <mxPoint x="340" y="343" as="targetPoint" />
          </mxGeometry>
        </mxCell>
        <mxCell id="ooVw9LdMY0Mfpqag8ppf-26" value="" style="edgeStyle=orthogonalEdgeStyle;rounded=0;orthogonalLoop=1;jettySize=auto;html=1;strokeColor=#23445D;exitX=1;exitY=0.5;exitDx=0;exitDy=0;" parent="WIyWlLk6GJQsqaUBKTNV-1" source="ooVw9LdMY0Mfpqag8ppf-15" target="ooVw9LdMY0Mfpqag8ppf-25" edge="1">
          <mxGeometry relative="1" as="geometry" />
        </mxCell>
        <mxCell id="ooVw9LdMY0Mfpqag8ppf-15" value="로그인" style="whiteSpace=wrap;html=1;fillColor=#fff2cc;strokeColor=#d6b656;rounded=1;labelBackgroundColor=none;fontStyle=1;fontFamily=Helvetica;fontSize=14;" parent="WIyWlLk6GJQsqaUBKTNV-1" vertex="1">
          <mxGeometry x="395" y="280" width="130" height="30" as="geometry" />
        </mxCell>
        <mxCell id="ooVw9LdMY0Mfpqag8ppf-20" value="회원가입" style="whiteSpace=wrap;html=1;fillColor=#fff2cc;strokeColor=#d6b656;rounded=1;labelBackgroundColor=none;fontStyle=1;fontFamily=Helvetica;fontSize=14;" parent="WIyWlLk6GJQsqaUBKTNV-1" vertex="1">
          <mxGeometry x="270" y="343" width="130" height="27" as="geometry" />
        </mxCell>
        <mxCell id="ooVw9LdMY0Mfpqag8ppf-25" value="비회원 예매" style="whiteSpace=wrap;html=1;fillColor=#fff2cc;strokeColor=#d6b656;rounded=1;labelBackgroundColor=none;fontStyle=1;fontFamily=Helvetica;fontSize=14;" parent="WIyWlLk6GJQsqaUBKTNV-1" vertex="1">
          <mxGeometry x="480" y="343" width="130" height="27" as="geometry" />
        </mxCell>
        <mxCell id="ooVw9LdMY0Mfpqag8ppf-28" value="아이디 /&amp;nbsp;&lt;div&gt;비밀번호 찾기&lt;/div&gt;" style="whiteSpace=wrap;html=1;fillColor=#fff2cc;strokeColor=#d6b656;rounded=1;labelBackgroundColor=none;fontStyle=1;fontFamily=Helvetica;fontSize=14;" parent="WIyWlLk6GJQsqaUBKTNV-1" vertex="1">
          <mxGeometry x="647.5" y="350" width="135" height="40" as="geometry" />
        </mxCell>
        <mxCell id="ooVw9LdMY0Mfpqag8ppf-30" value="&lt;h4 style=&quot;font-size: 14px;&quot;&gt;&lt;b style=&quot;font-size: 14px;&quot;&gt;이름&lt;br style=&quot;font-size: 14px;&quot;&gt;&lt;/b&gt;&lt;b style=&quot;font-size: 14px;&quot;&gt;아이디&lt;br style=&quot;font-size: 14px;&quot;&gt;&lt;/b&gt;&lt;b style=&quot;font-size: 14px;&quot;&gt;이메일 주소&lt;/b&gt;&lt;/h4&gt;" style="rounded=1;whiteSpace=wrap;html=1;strokeWidth=2;strokeColor=#ddc58d;fontSize=14;" parent="WIyWlLk6GJQsqaUBKTNV-1" vertex="1">
          <mxGeometry x="649" y="397" width="132.5" height="60" as="geometry" />
        </mxCell>
        <mxCell id="ooVw9LdMY0Mfpqag8ppf-35" value="&lt;h4 style=&quot;font-size: 14px;&quot;&gt;&lt;b style=&quot;font-size: 14px;&quot;&gt;&lt;font style=&quot;font-size: 14px;&quot;&gt;이름&lt;br style=&quot;font-size: 14px;&quot;&gt;&lt;/font&gt;&lt;/b&gt;&lt;span style=&quot;font-size: 14px;&quot;&gt;&lt;b style=&quot;font-size: 14px;&quot;&gt;아이디&lt;br style=&quot;font-size: 14px;&quot;&gt;&lt;/b&gt;&lt;/span&gt;&lt;b style=&quot;font-size: 14px;&quot;&gt;&lt;font style=&quot;font-size: 14px;&quot;&gt;비밀번호&lt;br style=&quot;font-size: 14px;&quot;&gt;&lt;/font&gt;&lt;/b&gt;&lt;b style=&quot;font-size: 14px;&quot;&gt;&lt;font style=&quot;font-size: 14px;&quot;&gt;휴대폰 번호&lt;br style=&quot;font-size: 14px;&quot;&gt;&lt;/font&gt;&lt;/b&gt;&lt;b style=&quot;font-size: 14px;&quot;&gt;&lt;font style=&quot;font-size: 14px;&quot;&gt;이메일 주소&lt;br style=&quot;font-size: 14px;&quot;&gt;&lt;/font&gt;&lt;/b&gt;&lt;b style=&quot;font-size: 14px;&quot;&gt;&lt;font style=&quot;font-size: 14px;&quot;&gt;생년월일&lt;br style=&quot;font-size: 14px;&quot;&gt;&lt;/font&gt;&lt;/b&gt;&lt;b style=&quot;font-size: 14px;&quot;&gt;&lt;font style=&quot;font-size: 14px;&quot;&gt;성별&lt;/font&gt;&lt;/b&gt;&lt;/h4&gt;" style="rounded=1;whiteSpace=wrap;html=1;strokeWidth=2;strokeColor=#ddc58d;fontSize=14;" parent="WIyWlLk6GJQsqaUBKTNV-1" vertex="1">
          <mxGeometry x="270" y="376" width="130" height="134" as="geometry" />
        </mxCell>
        <mxCell id="ooVw9LdMY0Mfpqag8ppf-36" value="&lt;h4 style=&quot;font-size: 14px;&quot;&gt;&lt;b style=&quot;font-size: 14px;&quot;&gt;이메일 주소&lt;/b&gt;&lt;/h4&gt;" style="rounded=1;whiteSpace=wrap;html=1;strokeWidth=2;strokeColor=#ddc58d;fontSize=14;" parent="WIyWlLk6GJQsqaUBKTNV-1" vertex="1">
          <mxGeometry x="480" y="376" width="130" height="34" as="geometry" />
        </mxCell>
        <mxCell id="ooVw9LdMY0Mfpqag8ppf-37" style="edgeStyle=orthogonalEdgeStyle;rounded=0;orthogonalLoop=1;jettySize=auto;html=1;exitX=0.5;exitY=1;exitDx=0;exitDy=0;strokeColor=#23445D;" parent="WIyWlLk6GJQsqaUBKTNV-1" edge="1">
          <mxGeometry relative="1" as="geometry">
            <mxPoint x="340" y="483.0000000000002" as="sourcePoint" />
            <mxPoint x="340" y="483.0000000000002" as="targetPoint" />
          </mxGeometry>
        </mxCell>
        <mxCell id="ooVw9LdMY0Mfpqag8ppf-38" value="마이페이지" style="rounded=1;whiteSpace=wrap;html=1;labelBackgroundColor=none;fontStyle=1;fillColor=#ffe6cc;strokeColor=#d79b00;fontSize=14;" parent="WIyWlLk6GJQsqaUBKTNV-1" vertex="1">
          <mxGeometry x="170" y="638.5" width="150" height="23" as="geometry" />
        </mxCell>
        <mxCell id="ooVw9LdMY0Mfpqag8ppf-40" value="관리자 페이지" style="rounded=1;whiteSpace=wrap;html=1;fillColor=#bac8d3;strokeColor=#23445d;labelBackgroundColor=none;fontStyle=1;fontSize=14;" parent="WIyWlLk6GJQsqaUBKTNV-1" vertex="1">
          <mxGeometry x="-2040" y="457" width="170" height="23" as="geometry" />
        </mxCell>
        <mxCell id="ooVw9LdMY0Mfpqag8ppf-43" value="영화" style="rounded=1;whiteSpace=wrap;html=1;fillColor=#e1d5e7;strokeColor=#9673a6;labelBackgroundColor=none;fontStyle=1;fontSize=14;" parent="WIyWlLk6GJQsqaUBKTNV-1" vertex="1">
          <mxGeometry x="-1654" y="320" width="170" height="23" as="geometry" />
        </mxCell>
        <mxCell id="ooVw9LdMY0Mfpqag8ppf-65" value="" style="edgeStyle=orthogonalEdgeStyle;rounded=0;orthogonalLoop=1;jettySize=auto;html=1;strokeColor=#23445D;" parent="WIyWlLk6GJQsqaUBKTNV-1" source="ooVw9LdMY0Mfpqag8ppf-47" target="ooVw9LdMY0Mfpqag8ppf-64" edge="1">
          <mxGeometry relative="1" as="geometry" />
        </mxCell>
        <mxCell id="ooVw9LdMY0Mfpqag8ppf-68" value="" style="edgeStyle=orthogonalEdgeStyle;rounded=0;orthogonalLoop=1;jettySize=auto;html=1;strokeColor=#23445D;" parent="WIyWlLk6GJQsqaUBKTNV-1" source="ooVw9LdMY0Mfpqag8ppf-47" target="ooVw9LdMY0Mfpqag8ppf-67" edge="1">
          <mxGeometry relative="1" as="geometry" />
        </mxCell>
        <mxCell id="ooVw9LdMY0Mfpqag8ppf-70" value="" style="edgeStyle=orthogonalEdgeStyle;rounded=0;orthogonalLoop=1;jettySize=auto;html=1;strokeColor=#23445D;" parent="WIyWlLk6GJQsqaUBKTNV-1" source="ooVw9LdMY0Mfpqag8ppf-47" target="ooVw9LdMY0Mfpqag8ppf-69" edge="1">
          <mxGeometry relative="1" as="geometry" />
        </mxCell>
        <mxCell id="ooVw9LdMY0Mfpqag8ppf-47" value="커뮤니티" style="rounded=1;whiteSpace=wrap;html=1;fillColor=#d5e8d4;strokeColor=#82b366;labelBackgroundColor=none;fontStyle=1;fontSize=14;" parent="WIyWlLk6GJQsqaUBKTNV-1" vertex="1">
          <mxGeometry x="-300" y="320" width="170" height="23" as="geometry" />
        </mxCell>
        <mxCell id="ooVw9LdMY0Mfpqag8ppf-51" value="음악" style="rounded=1;whiteSpace=wrap;html=1;fillColor=#dae8fc;strokeColor=#6c8ebf;labelBackgroundColor=none;fontStyle=1;fontSize=14;" parent="WIyWlLk6GJQsqaUBKTNV-1" vertex="1">
          <mxGeometry x="-997" y="322" width="170" height="23" as="geometry" />
        </mxCell>
        <mxCell id="ooVw9LdMY0Mfpqag8ppf-52" value="도서" style="rounded=1;whiteSpace=wrap;html=1;fillColor=#b0e3e6;strokeColor=#0e8088;labelBackgroundColor=none;fontStyle=1;fontSize=14;" parent="WIyWlLk6GJQsqaUBKTNV-1" vertex="1">
          <mxGeometry x="-1220" y="320" width="170" height="23" as="geometry" />
        </mxCell>
        <mxCell id="ooVw9LdMY0Mfpqag8ppf-64" value="공지사항" style="rounded=1;whiteSpace=wrap;html=1;fillColor=#d5e8d4;strokeColor=#82b366;labelBackgroundColor=none;fontStyle=1;fontSize=14;" parent="WIyWlLk6GJQsqaUBKTNV-1" vertex="1">
          <mxGeometry x="-400" y="418" width="170" height="23" as="geometry" />
        </mxCell>
        <mxCell id="ooVw9LdMY0Mfpqag8ppf-67" value="1:1문의" style="rounded=1;whiteSpace=wrap;html=1;fillColor=#d5e8d4;strokeColor=#82b366;labelBackgroundColor=none;fontStyle=1;fontSize=14;" parent="WIyWlLk6GJQsqaUBKTNV-1" vertex="1">
          <mxGeometry x="-85.56" y="418" width="170" height="23" as="geometry" />
        </mxCell>
        <mxCell id="ooVw9LdMY0Mfpqag8ppf-69" value="자유게시판" style="rounded=1;whiteSpace=wrap;html=1;fillColor=#d5e8d4;strokeColor=#82b366;labelBackgroundColor=none;fontStyle=1;fontSize=14;" parent="WIyWlLk6GJQsqaUBKTNV-1" vertex="1">
          <mxGeometry x="-756.69" y="408.25" width="170" height="23" as="geometry" />
        </mxCell>
        <mxCell id="ooVw9LdMY0Mfpqag8ppf-71" value="&lt;span id=&quot;docs-internal-guid-21f7aed0-7fff-f2a8-6124-d57b1509e031&quot; style=&quot;font-size: 14px;&quot;&gt;&lt;h4 style=&quot;line-height: 1.2; margin-top: 0pt; margin-bottom: 0pt; font-size: 14px;&quot;&gt;&lt;span style=&quot;font-family: &amp;quot;Noto Sans KR&amp;quot;, sans-serif; background-color: transparent; font-variant-numeric: normal; font-variant-east-asian: normal; font-variant-alternates: normal; font-variant-position: normal; vertical-align: baseline; white-space-collapse: preserve; font-size: 14px;&quot;&gt;&lt;b style=&quot;font-size: 14px;&quot;&gt;게시글 번호&lt;br style=&quot;font-size: 14px;&quot;&gt;&lt;/b&gt;&lt;/span&gt;&lt;span style=&quot;font-family: &amp;quot;Noto Sans KR&amp;quot;, sans-serif; background-color: transparent; font-variant-numeric: normal; font-variant-east-asian: normal; font-variant-alternates: normal; font-variant-position: normal; vertical-align: baseline; white-space-collapse: preserve; font-size: 14px;&quot;&gt;&lt;b style=&quot;font-size: 14px;&quot;&gt;카테고리 선택 버튼&lt;br style=&quot;font-size: 14px;&quot;&gt;&lt;/b&gt;&lt;/span&gt;&lt;span style=&quot;font-family: &amp;quot;Noto Sans KR&amp;quot;, sans-serif; background-color: transparent; font-variant-numeric: normal; font-variant-east-asian: normal; font-variant-alternates: normal; font-variant-position: normal; vertical-align: baseline; white-space-collapse: preserve; font-size: 14px;&quot;&gt;&lt;b style=&quot;font-size: 14px;&quot;&gt;제목&lt;br style=&quot;font-size: 14px;&quot;&gt;&lt;/b&gt;&lt;/span&gt;&lt;span style=&quot;font-family: &amp;quot;Noto Sans KR&amp;quot;, sans-serif; background-color: transparent; font-variant-numeric: normal; font-variant-east-asian: normal; font-variant-alternates: normal; font-variant-position: normal; vertical-align: baseline; white-space-collapse: preserve; font-size: 14px;&quot;&gt;&lt;b style=&quot;font-size: 14px;&quot;&gt;등록일&lt;/b&gt;&lt;/span&gt;&lt;br&gt;&lt;/h4&gt;&lt;/span&gt;" style="rounded=1;whiteSpace=wrap;html=1;strokeWidth=2;strokeColor=#82b366;fontSize=14;" parent="WIyWlLk6GJQsqaUBKTNV-1" vertex="1">
          <mxGeometry x="-400" y="449" width="170" height="101" as="geometry" />
        </mxCell>
        <mxCell id="ooVw9LdMY0Mfpqag8ppf-72" value="&lt;span style=&quot;font-size: 14px;&quot; id=&quot;docs-internal-guid-21f7aed0-7fff-f2a8-6124-d57b1509e031&quot;&gt;&lt;h4 style=&quot;line-height: 1.2; margin-top: 0pt; margin-bottom: 0pt; font-size: 14px;&quot;&gt;&lt;span id=&quot;docs-internal-guid-90d0d671-7fff-7fe8-fb4d-e33a330dddbc&quot; style=&quot;font-size: 14px;&quot;&gt;&lt;h4 style=&quot;line-height: 1.2; margin-top: 0pt; margin-bottom: 0pt; font-size: 14px;&quot;&gt;&lt;font face=&quot;Helvetica&quot; style=&quot;font-size: 14px;&quot;&gt;&lt;span style=&quot;background-color: transparent; font-variant-numeric: normal; font-variant-east-asian: normal; font-variant-alternates: normal; font-variant-position: normal; vertical-align: baseline; white-space-collapse: preserve; font-size: 14px;&quot;&gt;게시글 번호&lt;br style=&quot;font-size: 14px;&quot;&gt;&lt;/span&gt;&lt;span style=&quot;background-color: transparent; font-variant-numeric: normal; font-variant-east-asian: normal; font-variant-alternates: normal; font-variant-position: normal; vertical-align: baseline; white-space-collapse: preserve; font-size: 14px;&quot;&gt;제목&lt;br style=&quot;font-size: 14px;&quot;&gt;&lt;/span&gt;&lt;span style=&quot;background-color: transparent; font-variant-numeric: normal; font-variant-east-asian: normal; font-variant-alternates: normal; font-variant-position: normal; vertical-align: baseline; white-space-collapse: preserve; font-size: 14px;&quot;&gt;작성일&lt;br style=&quot;font-size: 14px;&quot;&gt;&lt;/span&gt;&lt;span style=&quot;background-color: transparent; font-variant-numeric: normal; font-variant-east-asian: normal; font-variant-alternates: normal; font-variant-position: normal; vertical-align: baseline; white-space-collapse: preserve; font-size: 14px;&quot;&gt;작성자 닉네임&lt;/span&gt;&lt;span style=&quot;background-color: transparent; font-variant-numeric: normal; font-variant-east-asian: normal; font-variant-alternates: normal; font-variant-position: normal; vertical-align: baseline; white-space-collapse: preserve; font-size: 14px;&quot;&gt;&lt;br style=&quot;font-size: 14px;&quot;&gt;&lt;/span&gt;&lt;span style=&quot;background-color: transparent; font-variant-numeric: normal; font-variant-east-asian: normal; font-variant-alternates: normal; font-variant-position: normal; vertical-align: baseline; white-space-collapse: preserve; font-size: 14px;&quot;&gt;카테고리 버튼&lt;br style=&quot;font-size: 14px;&quot;&gt;&lt;/span&gt;&lt;span style=&quot;background-color: transparent; font-variant-numeric: normal; font-variant-east-asian: normal; font-variant-alternates: normal; font-variant-position: normal; vertical-align: baseline; white-space-collapse: preserve; font-size: 14px;&quot;&gt;검색 창&lt;/span&gt;&lt;/font&gt;&lt;/h4&gt;&lt;/span&gt;&lt;/h4&gt;&lt;/span&gt;" style="rounded=1;whiteSpace=wrap;html=1;strokeWidth=2;strokeColor=#82b366;fontSize=14;fontStyle=1" parent="WIyWlLk6GJQsqaUBKTNV-1" vertex="1">
          <mxGeometry x="-755.69" y="439.25" width="170" height="121" as="geometry" />
        </mxCell>
        <mxCell id="ooVw9LdMY0Mfpqag8ppf-77" value="&lt;h4 style=&quot;&quot;&gt;&lt;span id=&quot;docs-internal-guid-38c16f56-7fff-fe67-2785-babd536d0d52&quot; style=&quot;font-weight:normal;&quot;&gt;&lt;h4 style=&quot;line-height: 1.2; margin-top: 0pt; margin-bottom: 0pt;&quot;&gt;&lt;span style=&quot;font-family: &amp;quot;Noto Sans KR&amp;quot;, sans-serif; background-color: transparent; font-weight: 700; font-variant-numeric: normal; font-variant-east-asian: normal; font-variant-alternates: normal; font-variant-position: normal; vertical-align: baseline; white-space-collapse: preserve;&quot;&gt;이미지&lt;br&gt;&lt;/span&gt;&lt;span style=&quot;font-family: &amp;quot;Noto Sans KR&amp;quot;, sans-serif; background-color: transparent; font-weight: 700; font-variant-numeric: normal; font-variant-east-asian: normal; font-variant-alternates: normal; font-variant-position: normal; vertical-align: baseline; white-space-collapse: preserve;&quot;&gt;카테고리&lt;br&gt;&lt;/span&gt;&lt;span style=&quot;font-family: &amp;quot;Noto Sans KR&amp;quot;, sans-serif; background-color: transparent; font-weight: 700; font-variant-numeric: normal; font-variant-east-asian: normal; font-variant-alternates: normal; font-variant-position: normal; vertical-align: baseline; white-space-collapse: preserve;&quot;&gt;체크박스&amp;nbsp;&lt;br&gt;&lt;/span&gt;&lt;span style=&quot;font-family: &amp;quot;Noto Sans KR&amp;quot;, sans-serif; background-color: transparent; font-weight: 700; font-variant-numeric: normal; font-variant-east-asian: normal; font-variant-alternates: normal; font-variant-position: normal; vertical-align: baseline; white-space-collapse: preserve;&quot;&gt;가격&lt;br&gt;&lt;/span&gt;&lt;span style=&quot;font-family: &amp;quot;Noto Sans KR&amp;quot;, sans-serif; background-color: transparent; font-weight: 700; font-variant-numeric: normal; font-variant-east-asian: normal; font-variant-alternates: normal; font-variant-position: normal; vertical-align: baseline; white-space-collapse: preserve;&quot;&gt;이름&lt;br&gt;&lt;/span&gt;&lt;span style=&quot;font-family: &amp;quot;Noto Sans KR&amp;quot;, sans-serif; background-color: transparent; font-weight: 700; font-variant-numeric: normal; font-variant-east-asian: normal; font-variant-alternates: normal; font-variant-position: normal; vertical-align: baseline; white-space-collapse: preserve;&quot;&gt;구매 버튼&lt;br&gt;&lt;/span&gt;&lt;span style=&quot;font-family: &amp;quot;Noto Sans KR&amp;quot;, sans-serif; background-color: transparent; font-weight: 700; font-variant-numeric: normal; font-variant-east-asian: normal; font-variant-alternates: normal; font-variant-position: normal; vertical-align: baseline; white-space-collapse: preserve;&quot;&gt;수량&lt;br&gt;&lt;/span&gt;&lt;span style=&quot;font-family: &amp;quot;Noto Sans KR&amp;quot;, sans-serif; background-color: transparent; font-weight: 700; font-variant-numeric: normal; font-variant-east-asian: normal; font-variant-alternates: normal; font-variant-position: normal; vertical-align: baseline; white-space-collapse: preserve;&quot;&gt;총 금액&lt;/span&gt;&lt;/h4&gt;&lt;h4 style=&quot;line-height: 1.2; margin-top: 0pt; margin-bottom: 0pt;&quot;&gt;삭제 버튼&lt;/h4&gt;&lt;h4 style=&quot;line-height: 1.2; margin-top: 0pt; margin-bottom: 0pt;&quot;&gt;전체 삭제 버튼&lt;/h4&gt;&lt;/span&gt;&lt;/h4&gt;" style="rounded=1;whiteSpace=wrap;html=1;strokeWidth=2;strokeColor=#666666;fontSize=14;" parent="WIyWlLk6GJQsqaUBKTNV-1" vertex="1">
          <mxGeometry x="900" y="376" width="140" height="184" as="geometry" />
        </mxCell>
        <mxCell id="ooVw9LdMY0Mfpqag8ppf-95" value="" style="edgeStyle=orthogonalEdgeStyle;rounded=0;orthogonalLoop=1;jettySize=auto;html=1;strokeColor=#23445D;" parent="WIyWlLk6GJQsqaUBKTNV-1" source="ooVw9LdMY0Mfpqag8ppf-85" target="ooVw9LdMY0Mfpqag8ppf-94" edge="1">
          <mxGeometry relative="1" as="geometry" />
        </mxCell>
        <mxCell id="ooVw9LdMY0Mfpqag8ppf-85" value="이미지 / 상품명" style="whiteSpace=wrap;html=1;rounded=1;labelBackgroundColor=none;fontStyle=1;fontSize=14;fillColor=#f5f5f5;fontColor=#333333;strokeColor=#666666;fontFamily=Helvetica;" parent="WIyWlLk6GJQsqaUBKTNV-1" vertex="1">
          <mxGeometry x="1030" y="580" width="140" height="33" as="geometry" />
        </mxCell>
        <mxCell id="ooVw9LdMY0Mfpqag8ppf-94" value="제품 상세페이지" style="whiteSpace=wrap;html=1;rounded=1;labelBackgroundColor=none;fontStyle=1;fontSize=14;fillColor=#f5f5f5;fontColor=#333333;strokeColor=#666666;fontFamily=Helvetica;" parent="WIyWlLk6GJQsqaUBKTNV-1" vertex="1">
          <mxGeometry x="1030" y="650" width="140" height="34" as="geometry" />
        </mxCell>
        <mxCell id="ooVw9LdMY0Mfpqag8ppf-98" value="&lt;font color=&quot;#000000&quot; style=&quot;font-size: 14px;&quot;&gt;클릭&lt;/font&gt;" style="text;html=1;align=center;verticalAlign=middle;whiteSpace=wrap;rounded=0;fontColor=#FFFFFF;fontStyle=1" parent="WIyWlLk6GJQsqaUBKTNV-1" vertex="1">
          <mxGeometry x="1100" y="613" width="70" height="40" as="geometry" />
        </mxCell>
        <mxCell id="c22HlbpBZtG6M4ogobQb-5" value="&lt;h4 style=&quot;font-size: 14px; line-height: 1.2; margin-top: 0pt; margin-bottom: 0pt;&quot;&gt;&lt;span style=&quot;background-color: transparent; font-variant-numeric: normal; font-variant-east-asian: normal; font-variant-alternates: normal; font-variant-position: normal; vertical-align: baseline; white-space-collapse: preserve; font-size: 14px;&quot;&gt;구매 하기&lt;/span&gt;&lt;/h4&gt;" style="ellipse;shape=cloud;whiteSpace=wrap;html=1;fillColor=#f5f5f5;fontStyle=1;fontSize=14;fontFamily=Helvetica;" vertex="1" parent="WIyWlLk6GJQsqaUBKTNV-1">
          <mxGeometry x="800" y="558.5" width="120" height="80" as="geometry" />
        </mxCell>
        <mxCell id="c22HlbpBZtG6M4ogobQb-7" value="삭제 하기&lt;div style=&quot;font-size: 14px;&quot;&gt;전체 삭제&lt;/div&gt;" style="ellipse;shape=cloud;whiteSpace=wrap;html=1;fillColor=#f5f5f5;fontStyle=1;fontSize=14;fontFamily=Helvetica;" vertex="1" parent="WIyWlLk6GJQsqaUBKTNV-1">
          <mxGeometry x="910" y="558.5" width="120" height="80" as="geometry" />
        </mxCell>
        <mxCell id="c22HlbpBZtG6M4ogobQb-30" value="" style="edgeStyle=orthogonalEdgeStyle;rounded=0;orthogonalLoop=1;jettySize=auto;html=1;entryX=0.5;entryY=0;entryDx=0;entryDy=0;" edge="1" parent="WIyWlLk6GJQsqaUBKTNV-1" source="c22HlbpBZtG6M4ogobQb-10" target="c22HlbpBZtG6M4ogobQb-25">
          <mxGeometry relative="1" as="geometry" />
        </mxCell>
        <mxCell id="c22HlbpBZtG6M4ogobQb-10" value="&lt;h4&gt;&lt;font style=&quot;font-size: 14px;&quot;&gt;글 작성&lt;/font&gt;&lt;/h4&gt;" style="ellipse;whiteSpace=wrap;html=1;strokeColor=#82b366;fillColor=#d5e8d4;" vertex="1" parent="WIyWlLk6GJQsqaUBKTNV-1">
          <mxGeometry x="-133.72" y="558.5" width="99.25" height="35" as="geometry" />
        </mxCell>
        <mxCell id="c22HlbpBZtG6M4ogobQb-13" value="" style="edgeStyle=orthogonalEdgeStyle;rounded=0;orthogonalLoop=1;jettySize=auto;html=1;" edge="1" parent="WIyWlLk6GJQsqaUBKTNV-1" source="c22HlbpBZtG6M4ogobQb-11" target="c22HlbpBZtG6M4ogobQb-12">
          <mxGeometry relative="1" as="geometry" />
        </mxCell>
        <mxCell id="c22HlbpBZtG6M4ogobQb-11" value="제목" style="rounded=1;whiteSpace=wrap;html=1;fillColor=#d5e8d4;strokeColor=#82b366;labelBackgroundColor=none;fontStyle=1;fontSize=14;" vertex="1" parent="WIyWlLk6GJQsqaUBKTNV-1">
          <mxGeometry x="14.999999999999998" y="558.5" width="110" height="23.5" as="geometry" />
        </mxCell>
        <mxCell id="c22HlbpBZtG6M4ogobQb-12" value="문의 상세 페이지" style="rounded=1;whiteSpace=wrap;html=1;fillColor=#d5e8d4;strokeColor=#82b366;labelBackgroundColor=none;fontStyle=1;fontSize=14;" vertex="1" parent="WIyWlLk6GJQsqaUBKTNV-1">
          <mxGeometry x="4.250000000000002" y="730" width="131.5" height="23.5" as="geometry" />
        </mxCell>
        <mxCell id="c22HlbpBZtG6M4ogobQb-14" value="&lt;span id=&quot;docs-internal-guid-21f7aed0-7fff-f2a8-6124-d57b1509e031&quot; style=&quot;font-size: 14px;&quot;&gt;&lt;h4 style=&quot;line-height: 1.2; margin-top: 0pt; margin-bottom: 0pt; font-size: 14px;&quot;&gt;&lt;span style=&quot;font-family: &amp;quot;Noto Sans KR&amp;quot;, sans-serif; background-color: transparent; font-variant-numeric: normal; font-variant-east-asian: normal; font-variant-alternates: normal; font-variant-position: normal; vertical-align: baseline; white-space-collapse: preserve; font-size: 14px;&quot;&gt;&lt;b style=&quot;font-size: 14px;&quot;&gt;게시글 번호&lt;br style=&quot;font-size: 14px;&quot;&gt;&lt;/b&gt;&lt;/span&gt;&lt;span style=&quot;font-family: &amp;quot;Noto Sans KR&amp;quot;, sans-serif; background-color: transparent; font-variant-numeric: normal; font-variant-east-asian: normal; font-variant-alternates: normal; font-variant-position: normal; vertical-align: baseline; white-space-collapse: preserve; font-size: 14px;&quot;&gt;&lt;b style=&quot;font-size: 14px;&quot;&gt;카테고리 선택 버튼&lt;br style=&quot;font-size: 14px;&quot;&gt;&lt;/b&gt;&lt;/span&gt;&lt;span style=&quot;font-family: &amp;quot;Noto Sans KR&amp;quot;, sans-serif; background-color: transparent; font-variant-numeric: normal; font-variant-east-asian: normal; font-variant-alternates: normal; font-variant-position: normal; vertical-align: baseline; white-space-collapse: preserve; font-size: 14px;&quot;&gt;&lt;b style=&quot;font-size: 14px;&quot;&gt;제목&lt;br style=&quot;font-size: 14px;&quot;&gt;&lt;/b&gt;&lt;/span&gt;&lt;span style=&quot;font-family: &amp;quot;Noto Sans KR&amp;quot;, sans-serif; background-color: transparent; font-variant-numeric: normal; font-variant-east-asian: normal; font-variant-alternates: normal; font-variant-position: normal; vertical-align: baseline; white-space-collapse: preserve; font-size: 14px;&quot;&gt;&lt;b style=&quot;font-size: 14px;&quot;&gt;등록일&lt;/b&gt;&lt;/span&gt;&lt;br&gt;&lt;/h4&gt;&lt;/span&gt;" style="rounded=1;whiteSpace=wrap;html=1;strokeWidth=2;strokeColor=#82b366;fontSize=14;" vertex="1" parent="WIyWlLk6GJQsqaUBKTNV-1">
          <mxGeometry x="-85.56" y="449.75" width="170" height="100.25" as="geometry" />
        </mxCell>
        <mxCell id="c22HlbpBZtG6M4ogobQb-15" value="&lt;span id=&quot;docs-internal-guid-21f7aed0-7fff-f2a8-6124-d57b1509e031&quot; style=&quot;font-size: 14px;&quot;&gt;&lt;b&gt;&lt;h4 style=&quot;line-height: 1.2; margin-top: 0pt; margin-bottom: 0pt; font-size: 14px;&quot;&gt;작성자 명&lt;/h4&gt;&lt;h4 style=&quot;line-height: 1.2; margin-top: 0pt; margin-bottom: 0pt; font-size: 14px;&quot;&gt;제목&lt;/h4&gt;&lt;div&gt;등록일&lt;/div&gt;&lt;div&gt;카테고리&lt;/div&gt;&lt;h4 style=&quot;line-height: 1.2; margin-top: 0pt; margin-bottom: 0pt; font-size: 14px;&quot;&gt;문의 내용&lt;/h4&gt;&lt;/b&gt;&lt;/span&gt;" style="rounded=1;whiteSpace=wrap;html=1;strokeWidth=2;strokeColor=#82b366;fontSize=14;" vertex="1" parent="WIyWlLk6GJQsqaUBKTNV-1">
          <mxGeometry x="-4.5" y="760" width="149" height="123" as="geometry" />
        </mxCell>
        <mxCell id="c22HlbpBZtG6M4ogobQb-16" value="&lt;h4 style=&quot;font-size: 14px; line-height: 1.2; margin-top: 0pt; margin-bottom: 0pt;&quot;&gt;&lt;span style=&quot;background-color: transparent; font-variant-numeric: normal; font-variant-east-asian: normal; font-variant-alternates: normal; font-variant-position: normal; vertical-align: baseline; white-space-collapse: preserve; font-size: 14px;&quot;&gt;삭제&lt;/span&gt;&lt;/h4&gt;" style="ellipse;shape=cloud;whiteSpace=wrap;html=1;fillColor=#f5f5f5;fontStyle=1;fontSize=14;fontFamily=Helvetica;strokeColor=#82b366;" vertex="1" parent="WIyWlLk6GJQsqaUBKTNV-1">
          <mxGeometry x="-30" y="884" width="68.88" height="45" as="geometry" />
        </mxCell>
        <mxCell id="c22HlbpBZtG6M4ogobQb-19" value="&lt;h4 style=&quot;font-size: 14px; line-height: 1.2; margin-top: 0pt; margin-bottom: 0pt;&quot;&gt;&lt;span style=&quot;background-color: transparent; font-variant-numeric: normal; font-variant-east-asian: normal; font-variant-alternates: normal; font-variant-position: normal; vertical-align: baseline; white-space-collapse: preserve; font-size: 14px;&quot;&gt;수정&lt;/span&gt;&lt;/h4&gt;" style="ellipse;shape=cloud;whiteSpace=wrap;html=1;fillColor=#f5f5f5;fontStyle=1;fontSize=14;fontFamily=Helvetica;strokeColor=#82b366;" vertex="1" parent="WIyWlLk6GJQsqaUBKTNV-1">
          <mxGeometry x="35.81" y="883" width="70.5" height="46" as="geometry" />
        </mxCell>
        <mxCell id="c22HlbpBZtG6M4ogobQb-20" value="&lt;h4 style=&quot;font-size: 14px; line-height: 1.2; margin-top: 0pt; margin-bottom: 0pt;&quot;&gt;&lt;span style=&quot;background-color: transparent; font-variant-numeric: normal; font-variant-east-asian: normal; font-variant-alternates: normal; font-variant-position: normal; vertical-align: baseline; white-space-collapse: preserve; font-size: 14px;&quot;&gt;목록&lt;/span&gt;&lt;/h4&gt;" style="ellipse;shape=cloud;whiteSpace=wrap;html=1;fillColor=#f5f5f5;fontStyle=1;fontSize=14;fontFamily=Helvetica;strokeColor=#82b366;" vertex="1" parent="WIyWlLk6GJQsqaUBKTNV-1">
          <mxGeometry x="104" y="883" width="66" height="46" as="geometry" />
        </mxCell>
        <mxCell id="c22HlbpBZtG6M4ogobQb-25" value="작성 페이지" style="rounded=1;whiteSpace=wrap;html=1;fillColor=#d5e8d4;strokeColor=#82b366;labelBackgroundColor=none;fontStyle=1;fontSize=14;" vertex="1" parent="WIyWlLk6GJQsqaUBKTNV-1">
          <mxGeometry x="-149.84" y="622" width="131.5" height="23.5" as="geometry" />
        </mxCell>
        <mxCell id="c22HlbpBZtG6M4ogobQb-29" value="&lt;span id=&quot;docs-internal-guid-21f7aed0-7fff-f2a8-6124-d57b1509e031&quot; style=&quot;font-size: 14px;&quot;&gt;&lt;b&gt;&lt;h4 style=&quot;line-height: 1.2; margin-top: 0pt; margin-bottom: 0pt; font-size: 14px;&quot;&gt;&lt;span style=&quot;font-family: &amp;quot;Noto Sans KR&amp;quot;, sans-serif; background-color: transparent; font-variant-numeric: normal; font-variant-east-asian: normal; font-variant-alternates: normal; font-variant-position: normal; vertical-align: baseline; white-space-collapse: preserve; font-size: 14px;&quot;&gt;&lt;span style=&quot;font-size: 14px;&quot;&gt;카테고리 선택 버튼&lt;/span&gt;&lt;/span&gt;&lt;/h4&gt;&lt;h4 style=&quot;line-height: 1.2; margin-top: 0pt; margin-bottom: 0pt; font-size: 14px;&quot;&gt;이름&lt;/h4&gt;&lt;h4 style=&quot;line-height: 1.2; margin-top: 0pt; margin-bottom: 0pt; font-size: 14px;&quot;&gt;이메일&lt;/h4&gt;&lt;h4 style=&quot;line-height: 1.2; margin-top: 0pt; margin-bottom: 0pt; font-size: 14px;&quot;&gt;전화번호&lt;/h4&gt;&lt;h4 style=&quot;line-height: 1.2; margin-top: 0pt; margin-bottom: 0pt; font-size: 14px;&quot;&gt;제목&lt;/h4&gt;&lt;h4 style=&quot;line-height: 1.2; margin-top: 0pt; margin-bottom: 0pt; font-size: 14px;&quot;&gt;문의 내용&lt;/h4&gt;&lt;h4 style=&quot;line-height: 1.2; margin-top: 0pt; margin-bottom: 0pt; font-size: 14px;&quot;&gt;사진 첨부 버튼&lt;/h4&gt;&lt;/b&gt;&lt;/span&gt;" style="rounded=1;whiteSpace=wrap;html=1;strokeWidth=2;strokeColor=#82b366;fontSize=14;" vertex="1" parent="WIyWlLk6GJQsqaUBKTNV-1">
          <mxGeometry x="-158.59" y="652" width="149" height="127" as="geometry" />
        </mxCell>
        <mxCell id="c22HlbpBZtG6M4ogobQb-31" value="&lt;font color=&quot;#000000&quot; style=&quot;font-size: 14px;&quot;&gt;클릭&lt;/font&gt;" style="text;html=1;align=center;verticalAlign=middle;whiteSpace=wrap;rounded=0;fontColor=#FFFFFF;fontStyle=1" vertex="1" parent="WIyWlLk6GJQsqaUBKTNV-1">
          <mxGeometry x="54.99999999999994" y="643" width="70" height="40" as="geometry" />
        </mxCell>
        <mxCell id="c22HlbpBZtG6M4ogobQb-32" value="&lt;h4 style=&quot;font-size: 14px; line-height: 1.2; margin-top: 0pt; margin-bottom: 0pt;&quot;&gt;&lt;span style=&quot;white-space-collapse: preserve;&quot;&gt;등록&lt;/span&gt;&lt;/h4&gt;" style="ellipse;shape=cloud;whiteSpace=wrap;html=1;fillColor=#f5f5f5;fontStyle=1;fontSize=14;fontFamily=Helvetica;strokeColor=#82b366;" vertex="1" parent="WIyWlLk6GJQsqaUBKTNV-1">
          <mxGeometry x="-171.09" y="779" width="76" height="56" as="geometry" />
        </mxCell>
        <mxCell id="c22HlbpBZtG6M4ogobQb-34" value="&lt;h4 style=&quot;font-size: 14px; line-height: 1.2; margin-top: 0pt; margin-bottom: 0pt;&quot;&gt;&lt;span style=&quot;white-space-collapse: preserve;&quot;&gt;취소&lt;/span&gt;&lt;/h4&gt;" style="ellipse;shape=cloud;whiteSpace=wrap;html=1;fillColor=#f5f5f5;fontStyle=1;fontSize=14;fontFamily=Helvetica;strokeColor=#82b366;" vertex="1" parent="WIyWlLk6GJQsqaUBKTNV-1">
          <mxGeometry x="-86.65" y="779" width="76" height="56" as="geometry" />
        </mxCell>
        <mxCell id="c22HlbpBZtG6M4ogobQb-36" value="" style="edgeStyle=orthogonalEdgeStyle;rounded=0;orthogonalLoop=1;jettySize=auto;html=1;entryX=0.5;entryY=0;entryDx=0;entryDy=0;" edge="1" parent="WIyWlLk6GJQsqaUBKTNV-1" target="c22HlbpBZtG6M4ogobQb-45">
          <mxGeometry relative="1" as="geometry">
            <mxPoint x="-403.87500000000045" y="611.5" as="sourcePoint" />
          </mxGeometry>
        </mxCell>
        <mxCell id="c22HlbpBZtG6M4ogobQb-38" value="" style="edgeStyle=orthogonalEdgeStyle;rounded=0;orthogonalLoop=1;jettySize=auto;html=1;" edge="1" parent="WIyWlLk6GJQsqaUBKTNV-1" source="c22HlbpBZtG6M4ogobQb-39" target="c22HlbpBZtG6M4ogobQb-40">
          <mxGeometry relative="1" as="geometry" />
        </mxCell>
        <mxCell id="c22HlbpBZtG6M4ogobQb-39" value="제목" style="rounded=1;whiteSpace=wrap;html=1;fillColor=#d5e8d4;strokeColor=#82b366;labelBackgroundColor=none;fontStyle=1;fontSize=14;" vertex="1" parent="WIyWlLk6GJQsqaUBKTNV-1">
          <mxGeometry x="-370" y="558.5" width="110" height="23.5" as="geometry" />
        </mxCell>
        <mxCell id="c22HlbpBZtG6M4ogobQb-40" value="공지 상세 페이지" style="rounded=1;whiteSpace=wrap;html=1;fillColor=#d5e8d4;strokeColor=#82b366;labelBackgroundColor=none;fontStyle=1;fontSize=14;" vertex="1" parent="WIyWlLk6GJQsqaUBKTNV-1">
          <mxGeometry x="-380.75" y="653" width="131.5" height="23.5" as="geometry" />
        </mxCell>
        <mxCell id="c22HlbpBZtG6M4ogobQb-41" value="&lt;span id=&quot;docs-internal-guid-21f7aed0-7fff-f2a8-6124-d57b1509e031&quot; style=&quot;font-size: 14px;&quot;&gt;&lt;b&gt;&lt;h4 style=&quot;line-height: 1.2; margin-top: 0pt; margin-bottom: 0pt; font-size: 14px;&quot;&gt;작성자 명&lt;/h4&gt;&lt;h4 style=&quot;line-height: 1.2; margin-top: 0pt; margin-bottom: 0pt; font-size: 14px;&quot;&gt;제목&lt;/h4&gt;&lt;div&gt;등록일&lt;/div&gt;&lt;div&gt;카테고리&lt;/div&gt;&lt;h4 style=&quot;line-height: 1.2; margin-top: 0pt; margin-bottom: 0pt; font-size: 14px;&quot;&gt;공지 내용&lt;/h4&gt;&lt;/b&gt;&lt;/span&gt;" style="rounded=1;whiteSpace=wrap;html=1;strokeWidth=2;strokeColor=#82b366;fontSize=14;" vertex="1" parent="WIyWlLk6GJQsqaUBKTNV-1">
          <mxGeometry x="-389.5" y="683" width="149" height="123" as="geometry" />
        </mxCell>
        <mxCell id="c22HlbpBZtG6M4ogobQb-44" value="&lt;h4 style=&quot;font-size: 14px; line-height: 1.2; margin-top: 0pt; margin-bottom: 0pt;&quot;&gt;&lt;span style=&quot;background-color: transparent; font-variant-numeric: normal; font-variant-east-asian: normal; font-variant-alternates: normal; font-variant-position: normal; vertical-align: baseline; white-space-collapse: preserve; font-size: 14px;&quot;&gt;목록&lt;/span&gt;&lt;/h4&gt;" style="ellipse;shape=cloud;whiteSpace=wrap;html=1;fillColor=#f5f5f5;fontStyle=1;fontSize=14;fontFamily=Helvetica;strokeColor=#82b366;" vertex="1" parent="WIyWlLk6GJQsqaUBKTNV-1">
          <mxGeometry x="-356.4" y="806" width="82.81" height="60" as="geometry" />
        </mxCell>
        <mxCell id="c22HlbpBZtG6M4ogobQb-47" value="&lt;font color=&quot;#000000&quot; style=&quot;font-size: 14px;&quot;&gt;클릭&lt;/font&gt;" style="text;html=1;align=center;verticalAlign=middle;whiteSpace=wrap;rounded=0;fontColor=#FFFFFF;fontStyle=1" vertex="1" parent="WIyWlLk6GJQsqaUBKTNV-1">
          <mxGeometry x="-330.00000000000006" y="598.5" width="70" height="40" as="geometry" />
        </mxCell>
        <mxCell id="c22HlbpBZtG6M4ogobQb-55" value="" style="edgeStyle=orthogonalEdgeStyle;rounded=0;orthogonalLoop=1;jettySize=auto;html=1;entryX=0.5;entryY=0;entryDx=0;entryDy=0;" edge="1" parent="WIyWlLk6GJQsqaUBKTNV-1" source="c22HlbpBZtG6M4ogobQb-56" target="c22HlbpBZtG6M4ogobQb-64">
          <mxGeometry relative="1" as="geometry" />
        </mxCell>
        <mxCell id="c22HlbpBZtG6M4ogobQb-56" value="&lt;h4&gt;&lt;font style=&quot;font-size: 14px;&quot;&gt;글 작성&lt;/font&gt;&lt;/h4&gt;" style="ellipse;whiteSpace=wrap;html=1;strokeColor=#82b366;fillColor=#d5e8d4;" vertex="1" parent="WIyWlLk6GJQsqaUBKTNV-1">
          <mxGeometry x="-789.63" y="575.5" width="99.25" height="35" as="geometry" />
        </mxCell>
        <mxCell id="c22HlbpBZtG6M4ogobQb-57" value="" style="edgeStyle=orthogonalEdgeStyle;rounded=0;orthogonalLoop=1;jettySize=auto;html=1;" edge="1" parent="WIyWlLk6GJQsqaUBKTNV-1" source="c22HlbpBZtG6M4ogobQb-58" target="c22HlbpBZtG6M4ogobQb-59">
          <mxGeometry relative="1" as="geometry" />
        </mxCell>
        <mxCell id="c22HlbpBZtG6M4ogobQb-58" value="제목" style="rounded=1;whiteSpace=wrap;html=1;fillColor=#d5e8d4;strokeColor=#82b366;labelBackgroundColor=none;fontStyle=1;fontSize=14;" vertex="1" parent="WIyWlLk6GJQsqaUBKTNV-1">
          <mxGeometry x="-677" y="578.25" width="110" height="23.5" as="geometry" />
        </mxCell>
        <mxCell id="c22HlbpBZtG6M4ogobQb-59" value="게시글 상세 페이지" style="rounded=1;whiteSpace=wrap;html=1;fillColor=#d5e8d4;strokeColor=#82b366;labelBackgroundColor=none;fontStyle=1;fontSize=14;" vertex="1" parent="WIyWlLk6GJQsqaUBKTNV-1">
          <mxGeometry x="-702" y="854" width="160" height="23.5" as="geometry" />
        </mxCell>
        <mxCell id="c22HlbpBZtG6M4ogobQb-60" value="&lt;span id=&quot;docs-internal-guid-21f7aed0-7fff-f2a8-6124-d57b1509e031&quot; style=&quot;font-size: 14px;&quot;&gt;&lt;b&gt;&lt;h4 style=&quot;line-height: 1.2; margin-top: 0pt; margin-bottom: 0pt; font-size: 14px;&quot;&gt;작성자 명&lt;/h4&gt;&lt;h4 style=&quot;line-height: 1.2; margin-top: 0pt; margin-bottom: 0pt; font-size: 14px;&quot;&gt;제목&lt;/h4&gt;&lt;div&gt;등록일&lt;/div&gt;&lt;div&gt;카테고리&lt;/div&gt;&lt;h4 style=&quot;line-height: 1.2; margin-top: 0pt; margin-bottom: 0pt; font-size: 14px;&quot;&gt;문의 내용&lt;/h4&gt;&lt;div&gt;좋아요&lt;/div&gt;&lt;/b&gt;&lt;/span&gt;" style="rounded=1;whiteSpace=wrap;html=1;strokeWidth=2;strokeColor=#82b366;fontSize=14;" vertex="1" parent="WIyWlLk6GJQsqaUBKTNV-1">
          <mxGeometry x="-696.5" y="884" width="149" height="123" as="geometry" />
        </mxCell>
        <mxCell id="c22HlbpBZtG6M4ogobQb-61" value="&lt;h4 style=&quot;font-size: 14px; line-height: 1.2; margin-top: 0pt; margin-bottom: 0pt;&quot;&gt;&lt;span style=&quot;background-color: transparent; font-variant-numeric: normal; font-variant-east-asian: normal; font-variant-alternates: normal; font-variant-position: normal; vertical-align: baseline; white-space-collapse: preserve; font-size: 14px;&quot;&gt;삭제&lt;/span&gt;&lt;/h4&gt;" style="ellipse;shape=cloud;whiteSpace=wrap;html=1;fillColor=#f5f5f5;fontStyle=1;fontSize=14;fontFamily=Helvetica;strokeColor=#82b366;" vertex="1" parent="WIyWlLk6GJQsqaUBKTNV-1">
          <mxGeometry x="-722" y="1008" width="68.88" height="45" as="geometry" />
        </mxCell>
        <mxCell id="c22HlbpBZtG6M4ogobQb-62" value="&lt;h4 style=&quot;font-size: 14px; line-height: 1.2; margin-top: 0pt; margin-bottom: 0pt;&quot;&gt;&lt;span style=&quot;background-color: transparent; font-variant-numeric: normal; font-variant-east-asian: normal; font-variant-alternates: normal; font-variant-position: normal; vertical-align: baseline; white-space-collapse: preserve; font-size: 14px;&quot;&gt;수정&lt;/span&gt;&lt;/h4&gt;" style="ellipse;shape=cloud;whiteSpace=wrap;html=1;fillColor=#f5f5f5;fontStyle=1;fontSize=14;fontFamily=Helvetica;strokeColor=#82b366;" vertex="1" parent="WIyWlLk6GJQsqaUBKTNV-1">
          <mxGeometry x="-656.1899999999999" y="1007" width="70.5" height="46" as="geometry" />
        </mxCell>
        <mxCell id="c22HlbpBZtG6M4ogobQb-63" value="&lt;h4 style=&quot;font-size: 14px; line-height: 1.2; margin-top: 0pt; margin-bottom: 0pt;&quot;&gt;&lt;span style=&quot;background-color: transparent; font-variant-numeric: normal; font-variant-east-asian: normal; font-variant-alternates: normal; font-variant-position: normal; vertical-align: baseline; white-space-collapse: preserve; font-size: 14px;&quot;&gt;목록&lt;/span&gt;&lt;/h4&gt;" style="ellipse;shape=cloud;whiteSpace=wrap;html=1;fillColor=#f5f5f5;fontStyle=1;fontSize=14;fontFamily=Helvetica;strokeColor=#82b366;" vertex="1" parent="WIyWlLk6GJQsqaUBKTNV-1">
          <mxGeometry x="-588" y="1007" width="66" height="46" as="geometry" />
        </mxCell>
        <mxCell id="c22HlbpBZtG6M4ogobQb-64" value="작성 페이지" style="rounded=1;whiteSpace=wrap;html=1;fillColor=#d5e8d4;strokeColor=#82b366;labelBackgroundColor=none;fontStyle=1;fontSize=14;" vertex="1" parent="WIyWlLk6GJQsqaUBKTNV-1">
          <mxGeometry x="-805.75" y="639" width="131.5" height="23.5" as="geometry" />
        </mxCell>
        <mxCell id="c22HlbpBZtG6M4ogobQb-65" value="&lt;span id=&quot;docs-internal-guid-21f7aed0-7fff-f2a8-6124-d57b1509e031&quot; style=&quot;font-size: 14px;&quot;&gt;&lt;b&gt;&lt;h4 style=&quot;line-height: 1.2; margin-top: 0pt; margin-bottom: 0pt; font-size: 14px;&quot;&gt;&lt;span style=&quot;font-family: &amp;quot;Noto Sans KR&amp;quot;, sans-serif; background-color: transparent; font-variant-numeric: normal; font-variant-east-asian: normal; font-variant-alternates: normal; font-variant-position: normal; vertical-align: baseline; white-space-collapse: preserve; font-size: 14px;&quot;&gt;&lt;span style=&quot;font-size: 14px;&quot;&gt;카테고리 선택 버튼&lt;/span&gt;&lt;/span&gt;&lt;/h4&gt;&lt;h4 style=&quot;line-height: 1.2; margin-top: 0pt; margin-bottom: 0pt; font-size: 14px;&quot;&gt;이름&lt;/h4&gt;&lt;h4 style=&quot;line-height: 1.2; margin-top: 0pt; margin-bottom: 0pt; font-size: 14px;&quot;&gt;제목&lt;/h4&gt;&lt;h4 style=&quot;line-height: 1.2; margin-top: 0pt; margin-bottom: 0pt; font-size: 14px;&quot;&gt;문의 내용&lt;/h4&gt;&lt;h4 style=&quot;line-height: 1.2; margin-top: 0pt; margin-bottom: 0pt; font-size: 14px;&quot;&gt;사진 첨부 버튼&lt;/h4&gt;&lt;/b&gt;&lt;/span&gt;" style="rounded=1;whiteSpace=wrap;html=1;strokeWidth=2;strokeColor=#82b366;fontSize=14;" vertex="1" parent="WIyWlLk6GJQsqaUBKTNV-1">
          <mxGeometry x="-814.5" y="669" width="149" height="127" as="geometry" />
        </mxCell>
        <mxCell id="c22HlbpBZtG6M4ogobQb-66" value="&lt;font color=&quot;#000000&quot; style=&quot;font-size: 14px;&quot;&gt;클릭&lt;/font&gt;" style="text;html=1;align=center;verticalAlign=middle;whiteSpace=wrap;rounded=0;fontColor=#FFFFFF;fontStyle=1" vertex="1" parent="WIyWlLk6GJQsqaUBKTNV-1">
          <mxGeometry x="-637.0000000000001" y="712.5" width="70" height="40" as="geometry" />
        </mxCell>
        <mxCell id="c22HlbpBZtG6M4ogobQb-67" value="&lt;h4 style=&quot;font-size: 14px; line-height: 1.2; margin-top: 0pt; margin-bottom: 0pt;&quot;&gt;&lt;span style=&quot;white-space-collapse: preserve;&quot;&gt;등록&lt;/span&gt;&lt;/h4&gt;" style="ellipse;shape=cloud;whiteSpace=wrap;html=1;fillColor=#f5f5f5;fontStyle=1;fontSize=14;fontFamily=Helvetica;strokeColor=#82b366;" vertex="1" parent="WIyWlLk6GJQsqaUBKTNV-1">
          <mxGeometry x="-827" y="796" width="76" height="56" as="geometry" />
        </mxCell>
        <mxCell id="c22HlbpBZtG6M4ogobQb-68" value="&lt;h4 style=&quot;font-size: 14px; line-height: 1.2; margin-top: 0pt; margin-bottom: 0pt;&quot;&gt;&lt;span style=&quot;white-space-collapse: preserve;&quot;&gt;취소&lt;/span&gt;&lt;/h4&gt;" style="ellipse;shape=cloud;whiteSpace=wrap;html=1;fillColor=#f5f5f5;fontStyle=1;fontSize=14;fontFamily=Helvetica;strokeColor=#82b366;" vertex="1" parent="WIyWlLk6GJQsqaUBKTNV-1">
          <mxGeometry x="-742.56" y="796" width="76" height="56" as="geometry" />
        </mxCell>
        <mxCell id="c22HlbpBZtG6M4ogobQb-72" style="edgeStyle=orthogonalEdgeStyle;rounded=0;orthogonalLoop=1;jettySize=auto;html=1;exitX=0;exitY=0.5;exitDx=0;exitDy=0;entryX=1;entryY=0.5;entryDx=0;entryDy=0;" edge="1" parent="WIyWlLk6GJQsqaUBKTNV-1" source="c22HlbpBZtG6M4ogobQb-69" target="ooVw9LdMY0Mfpqag8ppf-72">
          <mxGeometry relative="1" as="geometry" />
        </mxCell>
        <mxCell id="c22HlbpBZtG6M4ogobQb-69" value="&lt;span style=&quot;font-size: 14px;&quot;&gt;&lt;b&gt;검색&lt;/b&gt;&lt;/span&gt;" style="rhombus;whiteSpace=wrap;html=1;fillColor=#d5e8d4;strokeColor=#82b366;" vertex="1" parent="WIyWlLk6GJQsqaUBKTNV-1">
          <mxGeometry x="-556.25" y="469.5" width="120" height="60" as="geometry" />
        </mxCell>
      </root>
    </mxGraphModel>
  </diagram>
</mxfile>
